<?xml version="1.0" standalone="no"?>
<!DOCTYPE svg PUBLIC "-//W3C//DTD SVG 1.1//EN" "http://www.w3.org/Graphics/SVG/1.1/DTD/svg11.dtd" >
<svg xmlns="http://www.w3.org/2000/svg">
<metadata>
Created by FontForge 20120731 at Thu Dec  3 20:51:42 2015
 By Ads
</metadata>
<defs>
<font id="iconfont" horiz-adv-x="1024" >
  <font-face 
    font-family="iconfont"
    font-weight="500"
    font-stretch="normal"
    units-per-em="1024"
    panose-1="2 0 6 3 0 0 0 0 0 0"
    ascent="896"
    descent="-128"
    x-height="792"
    bbox="0 -128 1024 896"
    underline-thickness="50"
    underline-position="-100"
    unicode-range="U+0078-E614"
  />
<missing-glyph horiz-adv-x="374" 
d="M34 0v682h272v-682h-272zM68 34h204v614h-204v-614z" />
    <glyph glyph-name=".notdef" horiz-adv-x="374" 
d="M34 0v682h272v-682h-272zM68 34h204v614h-204v-614z" />
    <glyph glyph-name=".null" horiz-adv-x="0" 
 />
    <glyph glyph-name="nonmarkingreturn" horiz-adv-x="341" 
 />
    <glyph glyph-name="x" unicode="x" horiz-adv-x="1001" 
d="M281 543q-27 -1 -53 -1h-83q-18 0 -36.5 -6t-32.5 -18.5t-23 -32t-9 -45.5v-76h912v41q0 16 -0.5 30t-0.5 18q0 13 -5 29t-17 29.5t-31.5 22.5t-49.5 9h-133v-97h-438v97zM955 310v-52q0 -23 0.5 -52t0.5 -58t-10.5 -47.5t-26 -30t-33 -16t-31.5 -4.5q-14 -1 -29.5 -0.5
t-29.5 0.5h-32l-45 128h-439l-44 -128h-29h-34q-20 0 -45 1q-25 0 -41 9.5t-25.5 23t-13.5 29.5t-4 30v167h911zM163 247q-12 0 -21 -8.5t-9 -21.5t9 -21.5t21 -8.5q13 0 22 8.5t9 21.5t-9 21.5t-22 8.5zM316 123q-8 -26 -14 -48q-5 -19 -10.5 -37t-7.5 -25t-3 -15t1 -14.5
t9.5 -10.5t21.5 -4h37h67h81h80h64h36q23 0 34 12t2 38q-5 13 -9.5 30.5t-9.5 34.5q-5 19 -11 39h-368zM336 498v228q0 11 2.5 23t10 21.5t20.5 15.5t34 6h188q31 0 51.5 -14.5t20.5 -52.5v-227h-327z" />
    <glyph glyph-name="uniE600" unicode="&#xe600;" 
d="M896 361h-361v-385q0 -3 -1.5 -5.5t-4 -4t-5.5 -1.5h-24q-3 0 -5.5 1.5t-4 4t-1.5 5.5v385h-361q-4 0 -6.5 1.5t-4 4t-1.5 5.5v24q0 3 1.5 5.5t4 4t6.5 1.5h361v385q0 3 1.5 5.5t4 4t5.5 1.5h24q4 0 7.5 -3t3.5 -8v-385h361q5 0 8.5 -3.5t3.5 -7.5v-24q0 -3 -1.5 -5.5
t-4 -4t-6.5 -1.5z" />
    <glyph glyph-name="uniE601" unicode="&#xe601;" 
d="M164 724q-46 -46 -78 -101t-48.5 -117t-16.5 -126q0 -98 37 -186.5t106 -157.5t157.5 -106t186 -37t186.5 37t158 106q27 27 49.5 58t40 65t29 70t17.5 74t6 77q0 48 -9.5 95t-27.5 90.5t-44.5 83.5t-60.5 75q-28 27 -59 49.5t-64.5 40t-69.5 29t-74 17.5t-77 6
q-98 0 -186.5 -36.5t-157.5 -105.5zM943 380q0 -45 -9 -88t-25.5 -81.5t-40 -74t-53 -64.5t-64.5 -53t-74 -40.5t-82 -25t-87 -8.5q-71 0 -137.5 22t-120 62t-93.5 93.5t-62 120t-22 137.5q0 88 34.5 168.5t92.5 139t138.5 93t169 34.5t169 -34.5t139 -93t93 -139
t34.5 -168.5zM789 303q0 -5 -1.5 -9.5t-5.5 -8.5q-3 -3 -6.5 -5t-7.5 -2.5t-8 0t-7.5 2.5t-6.5 5l-238 238l-238 -238q-5 -5 -11.5 -7t-13 0t-11.5 7t-7 11.5t0 13t7 11.5l256 256q7 7 17.5 7t18.5 -7l256 -256q4 -4 5.5 -8.5t1.5 -9.5z" />
    <glyph glyph-name="uniE602" unicode="&#xe602;" 
d="M507.5 -107q-97.5 0 -186 37t-157.5 106t-106 157.5t-37 186t37 186.5t106 158t157.5 105.5t186 36.5t186.5 -36.5t158 -105.5t105.5 -158t36.5 -186.5t-36.5 -186t-105.5 -157.5t-158 -106t-186.5 -37zM508 815q-89 0 -169.5 -34.5t-138.5 -93t-92.5 -139t-34.5 -169
t34.5 -169t92.5 -138.5t138.5 -92.5t169 -34.5t169 34.5t139 92.5t93 138.5t34.5 169.5q0 44 -9 87t-25.5 82t-40 74t-53 64.5t-64.5 53t-74 40t-82 25.5t-87 9zM405 175q-2 0 -4.5 0.5t-5 1.5t-4.5 2.5t-4 2.5l-153 154q-8 7 -8 18t8 18q5 5 11.5 7t13 0t11.5 -7l135 -135
l341 340q3 3 6.5 5t7.5 2.5t7.5 0t7.5 -2.5t7 -5q7 -7 7 -18t-7 -18l-359 -359q-2 -1 -4 -2.5t-4 -2.5t-4.5 -1.5t-5.5 -0.5z" />
    <glyph glyph-name="uniE603" unicode="&#xe603;" 
d="M852 36q69 69 105.5 157.5t36.5 186t-36.5 186.5t-105.5 158t-158 105.5t-186.5 36.5t-186 -36.5t-157.5 -105.5q-35 -35 -61.5 -75t-44.5 -83.5t-27.5 -90.5t-9.5 -95q0 -98 37 -186.5t106 -157.5t157.5 -106t186.5 -37q48 0 95 9.5t91 27.5t83.5 44.5t74.5 61.5z
M73 379.5q0 88.5 34.5 169t92.5 139t138.5 93t169 34.5t169 -34.5t139 -93t93 -139t34.5 -168.5q0 -45 -9 -88t-25.5 -81.5t-40 -74t-53 -64.5t-64.5 -53t-74 -40.5t-82 -25t-87 -8.5q-89 0 -169.5 34.5t-138.5 92.5t-92.5 138.5t-34.5 169zM226 457q0 10 7.5 17.5t18 7.5
t18.5 -7l238 -238l238 238q7 7 17.5 7t18 -7.5t7.5 -18t-7 -18.5l-256 -256q-8 -7 -18.5 -7t-17.5 7l-256 256q-3 3 -4.5 6t-2.5 6t-1 7z" />
    <glyph glyph-name="uniE604" unicode="&#xe604;" 
d="M717 -107q10 0 18 8q4 4 5.5 8.5t1.5 9.5t-1.5 9.5t-5.5 8.5l-443 443l443 442q4 4 5.5 9t1.5 9.5t-1.5 9.5t-5.5 9q-8 7 -18.5 7t-17.5 -7l-461 -461q-5 -5 -6.5 -11.5t0 -13.5t6.5 -11l461 -461q7 -8 18 -8z" />
    <glyph glyph-name="uniE605" unicode="&#xe605;" 
d="M164 724q69 69 157.5 105.5t186.5 36.5q64 0 126 -16.5t117 -48.5t101 -77q27 -28 49.5 -59t40 -64.5t29 -69.5t17.5 -74t6 -77q0 -65 -16.5 -126.5t-48.5 -116.5t-77.5 -101t-100.5 -78t-117 -48.5t-126 -16.5q-98 0 -186.5 37t-157.5 106q-46 46 -78 101t-48.5 116.5
t-16.5 126.5q0 97 37 186t106 158zM507.5 -55q88.5 0 169 34.5t139 92.5t93 138.5t34.5 169.5q0 44 -9 87t-25.5 82t-40 74t-53 64.5t-64.5 53t-74 40t-82 25.5t-87 9q-89 0 -169.5 -34.5t-138.5 -93t-92.5 -139t-34.5 -169t34.5 -169t92.5 -138.5t138.5 -92.5t169 -34.5z
M585 98q10 0 17.5 7.5t7.5 18t-7 18.5l-238 238l238 238q3 3 4.5 6.5t2 7.5t0 7.5t-2 7.5t-4.5 7q-8 7 -18.5 7t-18.5 -7l-256 -256q-2 -3 -4 -7t-2.5 -7.5t0 -7.5t2.5 -7.5t4 -6.5l256 -256q8 -8 19 -8z" />
    <glyph glyph-name="uniE606" unicode="&#xe606;" 
d="M277 -107q-10 0 -18 8q-5 5 -6.5 11.5t0 13t6.5 11.5l443 443l-443 442q-3 3 -4.5 7t-2.5 7.5t0 7.5t2.5 8t4.5 7q8 7 18.5 7t17.5 -7l461 -461q4 -4 6 -8.5t2 -9.5t-2 -10t-6 -8l-461 -461q-7 -8 -18 -8z" />
    <glyph glyph-name="uniE607" unicode="&#xe607;" 
d="M852 724q-69 69 -158 105.5t-186 36.5q-65 0 -126.5 -16.5t-116.5 -48.5t-101 -77.5t-78 -100.5t-48.5 -116.5t-16.5 -126.5q0 -98 37 -186.5t106 -157.5t157.5 -106t186.5 -37q64 0 126 16.5t117 48.5t100.5 78t77.5 101t48.5 116.5t16.5 126.5t-16.5 126.5t-48.5 116.5
t-77 101zM508 -55q-71 0 -137.5 22t-120 62t-93.5 93.5t-62 120t-22 137.5q0 88 34.5 168.5t92.5 139t138.5 93t169 34.5t169 -34.5t139 -93t93 -139t34.5 -168.5q0 -45 -9 -88t-25.5 -81.5t-40 -74t-53 -64.5t-64.5 -53t-74 -40.5t-82 -25t-87 -8.5zM431 98
q-11 0 -18.5 7.5t-7.5 18t8 18.5l238 238l-238 238q-3 3 -5 6.5t-2.5 7.5t0 7.5t2.5 7.5t5 7q7 7 18 7t18 -7l256 -256q5 -5 6.5 -11.5t0 -13.5t-6.5 -11l-256 -256q-7 -8 -18 -8z" />
    <glyph glyph-name="uniE608" unicode="&#xe608;" horiz-adv-x="1025" 
d="M21 128q0 -11 7.5 -18.5t18.5 -7.5t18 8l443 443l442 -443q8 -8 18.5 -8t18.5 8q5 5 6.5 11.5t0 13t-6.5 11.5l-461 461q-8 7 -18.5 7t-17.5 -7l-461 -461q-8 -7 -8 -18z" />
    <glyph glyph-name="uniE609" unicode="&#xe609;" horiz-adv-x="1025" 
d="M21 589q0 10 7.5 17.5t18.5 7.5t18 -7l443 -443l442 443q8 7 18.5 7t18.5 -7q5 -5 6.5 -11.5t0 -13t-6.5 -11.5l-461 -461q-8 -8 -18.5 -8t-17.5 8l-461 461q-8 7 -8 18z" />
    <glyph glyph-name="uniE60A" unicode="&#xe60a;" 
d="M755 194l-209 186l209 185q5 5 7.5 11.5t1 13t-6 12t-11 7.5t-13.5 0.5t-12 -5.5l-213 -190l-214 190q-3 2 -6.5 4t-7.5 2t-8 -0.5t-7.5 -2.5t-6.5 -5q-7 -8 -6.5 -19t8.5 -18l209 -185l-209 -186q-8 -7 -8.5 -17.5t6.5 -18.5q8 -9 19 -9q5 0 9.5 2t7.5 5l214 189
l213 -189q7 -7 17 -7q12 0 19 9q5 5 6.5 11.5t-1 13t-7.5 11.5zM507.5 -107q-97.5 0 -186 37t-157.5 106t-106 157.5t-37 186t37 186.5t106 158t157.5 105.5t186 36.5t186.5 -36.5t158 -105.5t105.5 -158t36.5 -186.5t-36.5 -186t-105.5 -157.5t-158 -106t-186.5 -37z
M508 815q-89 0 -169.5 -34.5t-138.5 -93t-92.5 -139t-34.5 -169t34.5 -169t92.5 -138.5t138.5 -92.5t169 -34.5t169 34.5t139 92.5t93 138.5t34.5 169.5q0 44 -9 87t-25.5 82t-40 74t-53 64.5t-64.5 53t-74 40t-82 25.5t-87 9z" />
    <glyph glyph-name="uniE60B" unicode="&#xe60b;" 
d="M548 358l289 289q8 8 8 18.5t-8 18.5q-5 5 -11.5 6.5t-13 0t-11.5 -6.5l-289 -289l-289 289q-2 1 -4 2.5t-4 2.5t-4 1.5t-4 0.5h-5q-2 0 -4 -0.5t-4 -1.5t-4 -2.5t-3 -2.5q-8 -8 -8 -18.5t8 -18.5l289 -289l-289 -289q-8 -7 -8 -17.5t7.5 -18t18 -7.5t18.5 7l289 289
l289 -289q8 -7 18.5 -7t18 7.5t7.5 18t-8 17.5z" />
    <glyph glyph-name="uniE60C" unicode="&#xe60c;" 
d="M852 724q-69 69 -158 105.5t-186 36.5q-65 0 -126.5 -16.5t-116.5 -48.5t-101 -77.5t-78 -100.5t-48.5 -116.5t-16.5 -126.5q0 -98 37 -186.5t106 -157.5t157.5 -106t186.5 -37q64 0 126 16.5t117 48.5t100.5 78t77.5 101t48.5 116.5t16.5 126.5t-16.5 126.5t-48.5 116.5
t-77 101zM508 -55q-71 0 -137.5 22t-120 62t-93.5 93.5t-62 120t-22 137.5q0 88 34.5 168.5t92.5 139t138.5 93t169 34.5t169 -34.5t139 -93t93 -139t34.5 -168.5q0 -45 -9 -88t-25.5 -81.5t-40 -74t-53 -64.5t-64.5 -53t-74 -40.5t-82 -25t-87 -8.5zM815 405h-282v282
q0 7 -3.5 13t-9 9.5t-12.5 3.5q-11 0 -18.5 -7.5t-7.5 -18.5v-282h-281q-7 0 -13 -3.5t-9.5 -9t-3.5 -12.5t3.5 -13t9.5 -9.5t13 -3.5h281v-281q0 -7 3.5 -13t9.5 -9.5t13 -3.5q10 0 17.5 7.5t7.5 18.5v281h282q5 0 10 2t8 5.5t5.5 8.5t2.5 10q0 10 -7.5 17.5t-18.5 7.5z
" />
    <glyph glyph-name="uniE60D" unicode="&#xe60d;" 
d="M852 724q-69 69 -158 105.5t-186 36.5q-65 0 -126.5 -16.5t-116.5 -48.5t-101 -77.5t-78 -100.5t-48.5 -116.5t-16.5 -126.5q0 -98 37 -186.5t106 -157.5t157.5 -106t186.5 -37q64 0 126 16.5t117 48.5t100.5 78t77.5 101t48.5 116.5t16.5 126.5t-16.5 126.5t-48.5 116.5
t-77 101zM508 -55q-71 0 -137.5 22t-120 62t-93.5 93.5t-62 120t-22 137.5q0 88 34.5 168.5t92.5 139t138.5 93t169 34.5t169 -34.5t139 -93t93 -139t34.5 -168.5q0 -45 -9 -88t-25.5 -81.5t-40 -74t-53 -64.5t-64.5 -53t-74 -40.5t-82 -25t-87 -8.5zM815 354h-614
q-11 0 -18.5 7.5t-7.5 18.5q0 5 2 9.5t5.5 8t8 5.5t10.5 2h614q7 0 13 -3.5t9.5 -9t3.5 -12.5q0 -11 -7.5 -18.5t-18.5 -7.5z" />
    <glyph glyph-name="uniE60E" unicode="&#xe60e;" 
d="M896 589h-768q-5 0 -10 2t-8.5 5.5t-5.5 8t-2 9.5q0 11 7.5 18.5t18.5 7.5h768q5 0 10 -2t8.5 -5.5t5.5 -8t2 -10.5q0 -10 -7.5 -17.5t-18.5 -7.5zM896 333h-768q-5 0 -10 2t-8.5 5.5t-5.5 8t-2 10t2 10t5.5 8t8.5 5.5t10 2h768q7 0 13 -3.5t9.5 -9.5t3.5 -13
q0 -3 -1 -6.5t-3 -5.5l-4 -6q-2 -2 -5 -3.5t-6.5 -2.5t-6.5 -1zM896 77h-768q-5 0 -10 2t-8.5 5.5t-5.5 8t-2 9.5q0 11 7.5 18.5t18.5 7.5h768q11 0 18.5 -7.5t7.5 -18t-7.5 -18t-18.5 -7.5z" />
    <glyph glyph-name="uniE60F" unicode="&#xe60f;" 
d="M966 -85l-304 332q106 111 106 265q0 155 -108 267q-2 2 -4 5q-55 54 -125 83t-147 29t-147 -29t-124.5 -83.5t-83.5 -124.5t-29 -147t29 -147t83.5 -124.5t124.5 -83.5t147 -29q135 0 240 84l304 -332q8 -8 19 -8q10 1 18 7q7 7 7.5 17.5t-6.5 18.5zM51 512
q0 90 44.5 167t121.5 121.5t167 44.5t167 -44.5t121.5 -121.5t44.5 -167q0 -68 -26.5 -129.5t-71 -106t-106 -71t-129.5 -26.5q-90 0 -167 44.5t-121.5 121.5t-44.5 167z" />
    <glyph glyph-name="uniE610" unicode="&#xe610;" 
d="M819 -128q-45 0 -92 8.5t-96 25.5t-99 42q-140 72 -262 194t-193 262q-76 151 -76 287q0 65 78 137q13 13 28.5 24.5t32.5 21.5t34 16t31 6q28 0 71 -40q34 -31 71 -79q14 -19 30 -41.5t37 -61.5t21 -60q0 -13 -6.5 -25.5t-21.5 -25t-26.5 -20.5t-34.5 -22
q-36 -21 -49 -32q-15 -12 -17 -19q36 -91 131.5 -186.5t186.5 -131.5q7 2 19 17q10 13 32 49q14 23 22 34.5t20.5 26.5t25 21.5t25.5 6.5q21 0 60 -21t61.5 -37t41.5 -30q48 -38 79 -71q40 -43 40 -71q0 -27 -20.5 -62t-47.5 -64q-72 -79 -137 -79zM205 845q-12 0 -38 -14.5
t-53 -39.5q-29 -27 -45.5 -53.5t-16.5 -46.5q0 -84 33 -176t89 -176t132.5 -160.5t160.5 -132.5t176 -89.5t176 -33.5q43 0 100 62q25 28 39.5 53.5t14.5 38.5q-1 5 -10.5 18t-34 36.5t-57.5 49.5q-23 17 -45 32t-38.5 24t-28 14t-16.5 5q-6 -2 -19 -17q-10 -13 -31 -48
q-11 -18 -17 -27.5t-17 -23.5t-19 -21t-19.5 -12.5t-22.5 -5.5q-5 0 -9.5 1t-9.5 2q-101 41 -203.5 144t-143.5 203q-14 36 24 71q17 15 63 43q35 21 48 32q15 12 17 18q0 4 -3 12t-9.5 20.5t-15 26.5t-21 32t-26.5 37q-26 34 -50 58t-36.5 33.5t-18.5 10.5h1z" />
    <glyph glyph-name="uniE611" unicode="&#xe611;" 
d="M384 -81q-8 0 -15.5 1.5t-14 4t-13 7t-11.5 9.5l-261 261q-22 22 -22 54q0 15 5.5 29t16.5 25l440 440q12 12 30 22t38 16t37 6h231q32 0 54.5 -22.5t22.5 -54.5v-231q0 -17 -6 -37t-16 -38t-22 -30l-440 -440q-11 -11 -25 -16.5t-29 -5.5zM614 742q-16 0 -37 -8.5
t-32 -19.5l-439 -440q-4 -4 -6 -8.5t-2 -9.5q0 -11 8 -18l260 -261q7 -7 18 -7q3 0 6.5 1t6.5 2.5t5 3.5l440 440q3 3 6 7.5t6 9.5t5.5 10t4.5 11t3.5 11t2.5 10.5t1 9.5v231q0 10 -7.5 17.5t-18.5 7.5h-230h-1zM742.5 538q-15.5 0 -30 6t-24.5 16t-16 24.5t-6 30t6 29.5
t16 24.5t24.5 16.5t30 6t29.5 -6t24.5 -16.5t16.5 -24.5t6 -29.5t-6 -30t-16.5 -24.5t-24.5 -16t-29.5 -6zM742 640q-4 0 -8 -1.5t-7 -3.5t-5.5 -5.5t-3.5 -7t-1 -8.5t2 -9.5t5.5 -8t8 -5.5t10 -2t10 2t8 5.5t5.5 8t2 10t-2 10t-5.5 8t-8 5.5t-10.5 2z" />
    <glyph glyph-name="uniE612" unicode="&#xe612;" 
d="M508 -55q-7 0 -13 3q-14 8 -38 22.5t-84.5 58t-112.5 90.5q-103 93 -163 189q-76 121 -76 238q0 111 79 190t190 79q78 0 150 -53q8 -6 16 -12.5t15 -13.5t13.5 -14t12.5 -14.5t11 -15.5q26 40 67 70q72 53 150 53q112 0 190.5 -79t78.5 -190q0 -58 -19 -118t-57 -120
q-59 -95 -163 -189q-51 -47 -112 -90.5t-85 -58t-38 -22.5q-6 -3 -12 -3zM290 764q-90 0 -153.5 -64t-63.5 -154q0 -188 221 -388q98 -89 214 -158q115 69 214 158q33 30 62 60.5t59 70.5t51.5 79.5t35 86t13.5 91.5q0 59 -29 109t-79.5 79.5t-109.5 29.5q-41 0 -83 -21
t-70.5 -52t-39.5 -63q-6 -18 -24.5 -18t-24.5 18q-17 51 -73.5 93.5t-119.5 42.5z" />
    <glyph glyph-name="uniE613" unicode="&#xe613;" 
d="M104 377l-34 -37l283 -286h33l566 569l-33 35l-549 -548z" />
    <glyph glyph-name="uniE614" unicode="&#xe614;" 
d="M508 233q-5 0 -10 2.5t-8.5 7.5t-5.5 11.5t-2 13.5v355q0 14 7.5 24.5t18.5 10.5q7 0 12.5 -4.5t9 -13t3.5 -17.5v-355q0 -27 -18 -34q-4 -1 -7 -1zM508 79q-11 0 -18.5 6t-7.5 15v41q0 9 7.5 15t18 6t18 -6t7.5 -15v-41q0 -16 -19 -20q-4 -1 -6 -1zM508 -107
q-98 0 -186.5 37t-157.5 106t-106 157.5t-37 186t37 186.5t106 158t157.5 105.5t186 36.5t186.5 -36.5t158 -105.5t105.5 -158t36.5 -186.5t-36.5 -186t-105.5 -157.5q-35 -35 -74.5 -61.5t-83.5 -44.5t-91 -27.5t-95 -9.5zM508 815q-89 0 -169.5 -34.5t-138.5 -93
t-92.5 -139t-34.5 -169t34.5 -169t92.5 -138.5t138.5 -92.5t169 -34.5t169 34.5t139 92.5t93 138.5t34.5 169.5q0 71 -22 137t-62.5 119.5t-94 94t-119.5 62.5t-137 22z" />
  </font>
</defs>
</svg>
